External Loads File
version=1
nRows=46
nColumns=13
Range=5.000000e-03-10 seconds
endheader
time 	forceRightX 	forceRightY 	forceRightZ 	pointRightX 	pointRightY 	pointRightZ 	forceLeftX 	forceLeftY 	forceLeftZ 	pointLeftX 	pointLeftY 	pointLeftZ 		
2.505000 -48.631322 -4.354361 -0.000000 0.169736 0.469886 -0.102578 100.586086 659.449236 -0.000000 0.310909 0.184544 -0.342299
2.510000 -47.751134 2.807486 -0.000000 0.174011 0.473613 -0.103038 110.447523 637.863092 -0.000000 0.306569 0.181098 -0.342234
2.515000 -47.097910 9.873058 -0.000000 0.178479 0.477185 -0.103054 119.779582 615.067240 -0.000000 0.302181 0.177993 -0.342095
2.520000 -46.702073 17.068040 -0.000000 0.183011 0.480511 -0.103137 128.797595 590.761541 -0.000000 0.297584 0.174968 -0.342018
2.525000 -46.577521 24.714315 -0.000000 0.187671 0.483650 -0.103176 137.375089 564.702978 -0.000000 0.292851 0.172169 -0.341944
2.530000 -46.737722 33.241865 -0.000000 0.192441 0.486587 -0.103171 145.263383 536.693658 -0.000000 0.288048 0.169637 -0.341899
2.535000 -47.154376 43.152186 -0.000000 0.197256 0.489390 -0.103176 152.379821 506.527013 -0.000000 0.283150 0.167177 -0.341820
2.540000 -47.761166 54.888139 -0.000000 0.202192 0.491813 -0.103135 158.350837 474.197636 -0.000000 0.278211 0.165019 -0.341699
2.545000 -48.413523 68.803238 -0.000000 0.207152 0.494181 -0.103188 163.047071 439.844763 -0.000000 0.273192 0.162967 -0.341588
2.550000 -48.988682 85.067847 -0.000000 0.212076 0.496290 -0.103376 166.021550 403.933144 -0.000000 0.268145 0.161149 -0.341537
2.555000 -49.367166 103.737850 -0.000000 0.216896 0.498206 -0.103465 167.159773 366.927682 -0.000000 0.263061 0.159568 -0.341435
2.560000 -49.409315 124.765408 -0.000000 0.221739 0.499809 -0.103452 166.659703 329.164221 -0.000000 0.257896 0.158369 -0.341320
2.565000 -49.010848 147.946374 -0.000000 0.226656 0.501161 -0.103382 164.664810 290.996881 -0.000000 0.252695 0.157179 -0.341299
2.570000 -48.213155 172.913155 -0.000000 0.231479 0.502234 -0.103363 161.127092 252.978442 -0.000000 0.247478 0.156225 -0.341220
2.575000 -47.002787 199.273964 -0.000000 0.236188 0.503240 -0.103329 156.263525 215.664531 -0.000000 0.242225 0.155470 -0.341142
2.580000 -45.348996 226.660658 -0.000000 0.240890 0.503885 -0.103274 150.332144 179.657179 -0.000000 0.236993 0.155047 -0.341072
2.585000 -43.300672 254.774144 -0.000000 0.245474 0.504297 -0.103172 143.569500 145.558335 -0.000000 0.231738 0.154678 -0.340969
2.590000 -40.745824 283.464098 -0.000000 0.250145 0.504532 -0.103234 136.378641 113.731205 -0.000000 0.226438 0.154498 -0.340852
2.595000 -38.190455 312.591736 -0.000000 0.254453 0.504493 -0.103121 128.950688 84.651469 -0.000000 0.221110 0.154450 -0.340725
2.600000 -35.678515 342.144900 -0.000000 0.258687 0.504315 -0.102985 121.737001 58.342801 -0.000000 0.215778 0.154357 -0.340613
2.605000 -33.277675 372.105271 -0.000000 0.262938 0.503784 -0.103053 115.082835 34.736446 -0.000000 0.210434 0.154878 -0.340491
2.610000 -31.406109 402.404978 -0.000000 0.267126 0.503049 -0.103064 109.247176 13.833134 -0.000000 0.205073 0.155668 -0.340353
2.615000 -30.111655 432.963499 -0.000000 0.271356 0.501976 -0.103133 104.497828 -4.444348 -0.000000 0.199631 0.156698 -0.340200
2.620000 -29.703534 463.603751 -0.000000 0.275569 0.500555 -0.103144 101.056563 -20.010889 -0.000000 0.194162 0.157920 -0.340059
2.625000 -30.319226 494.069830 -0.000000 0.279772 0.498920 -0.103134 99.106579 -32.776119 -0.000000 0.188708 0.159465 -0.339884
2.630000 -31.924052 524.018655 -0.000000 0.283950 0.496912 -0.103094 98.738194 -42.743747 -0.000000 0.183233 0.161198 -0.339707
2.635000 -34.462977 553.031954 -0.000000 0.288096 0.494644 -0.102960 99.923309 -50.101886 -0.000000 0.177742 0.163284 -0.339507
2.640000 -37.915974 580.636009 -0.000000 0.292283 0.491984 -0.102838 102.518339 -55.249229 -0.000000 0.172315 0.165525 -0.339297
2.645000 -42.486857 606.297670 -0.000000 0.296497 0.489284 -0.102692 106.315155 -58.689776 -0.000000 0.166944 0.167935 -0.339131
2.650000 -47.600173 629.521037 -0.000000 0.300692 0.486002 -0.102467 110.985922 -61.095587 -0.000000 0.161508 0.170628 -0.339075
2.655000 -53.541918 649.795332 -0.000000 0.305037 0.482513 -0.102234 116.263836 -62.914745 -0.000000 0.156250 0.173585 -0.338930
2.660000 -59.810054 666.784295 -0.000000 0.309432 0.478298 -0.102237 121.786934 -64.588738 -0.000000 0.151128 0.176788 -0.338761
2.665000 -68.026473 680.121138 -0.000000 0.313835 0.475022 -0.102120 127.393787 -66.009513 -0.000000 0.146150 0.180078 -0.338661
2.670000 -75.939336 689.983038 -0.000000 0.318107 0.470473 -0.101951 132.579269 -67.664739 -0.000000 0.141350 0.183726 -0.338547
2.675000 -85.180510 696.352896 -0.000000 0.322332 0.466228 -0.101942 137.283740 -69.248944 -0.000000 0.136733 0.187377 -0.338528
2.680000 -94.711746 699.674512 -0.000000 0.326688 0.461849 -0.101932 141.270610 -70.923214 -0.000000 0.132301 0.191177 -0.338536
2.685000 -104.691032 700.423008 -0.000000 0.330866 0.457252 -0.101815 144.501551 -72.601377 -0.000000 0.128010 0.195157 -0.338513
2.690000 -114.995456 699.226978 -0.000000 0.334798 0.452410 -0.101565 146.970830 -74.257698 -0.000000 0.123935 0.199414 -0.338540
2.695000 -124.710680 696.947195 -0.000000 0.339103 0.447410 -0.101706 148.601285 -76.068545 -0.000000 0.119978 0.203711 -0.338630
2.700000 -134.921399 694.162007 -0.000000 0.342940 0.442170 -0.101671 149.522182 -77.803912 -0.000000 0.116314 0.208222 -0.338649
2.705000 -145.012339 691.741819 -0.000000 0.346532 0.436802 -0.101483 149.724659 -79.535675 -0.000000 0.112782 0.212912 -0.338685
2.710000 -154.498075 690.501035 -0.000000 0.349983 0.431188 -0.101518 149.319574 -81.194492 -0.000000 0.109398 0.217790 -0.338712
2.715000 -163.507516 691.005049 -0.000000 0.353351 0.425553 -0.101431 148.592004 -82.482941 -0.000000 0.106184 0.222906 -0.338766
2.720000 -172.122115 693.658262 -0.000000 0.356507 0.419763 -0.101359 147.851882 -83.118635 -0.000000 0.103167 0.228165 -0.338731
2.725000 -179.851865 698.834250 -0.000000 0.359435 0.413669 -0.101359 147.274129 -83.058378 -0.000000 0.100339 0.233642 -0.338719
2.730000 -186.851225 706.558530 -0.000000 0.362250 0.407510 -0.101358 146.981789 -82.284243 -0.000000 0.097713 0.239335 -0.338649
